<svg xmlns="http://www.w3.org/2000/svg" width="72" height="72" viewBox="0 0 72 72">
    <defs>
        <filter id="a" width="200%" height="200%">
            <feOffset result="offOut" in="SourceAlpha" dy="2.2"/>
            <feGaussianBlur result="blurOut" in="offOut" stdDeviation="1.5"/>
            <feColorMatrix values="0 0 0 0 0 0 0 0 0 0 0 0 0 0 0 0 0 0 0.4 0"/>
            <feMerge>
                <feMergeNode/>
                <feMergeNode in="SourceGraphic"/>
            </feMerge>
        </filter>
    </defs>
    <path fill="#ffffff" filter="url(#a)" d="M66.553,16.855l1.975,-8.495l-9.36,2.263c-2.711,-1.36 -5.712,-2.109 -8.779,-2.181c-5.699,-0.134 -11.072,2.015 -15.11,6.053l-33.789,33.848l12.194,0.474l-8.614,8.614l18.122,0.514l8.604,8.604l8.602,-8.603c0.271,0.001 1.6,0.012 1.975,0.012c4.17,0 8.295,-0.382 12.901,-4.988l8.955,-8.955c7.464,-7.463 8.323,-19.011 2.324,-27.16Z"/>
    <path fill="#0068c3" d="M62.487,17.68c-0.019,-0.021 -0.04,-0.041 -0.059,-0.062l1.579,-4.737l-5.209,1.736c-2.53,-1.561 -5.434,-2.433 -8.495,-2.505c-4.696,-0.11 -9.105,1.656 -12.424,4.976l-28.019,28.069l12.719,-0.04l-9.156,9.156l18.385,0l-3.547,3.547l3.536,3.536l7.082,-7.083l3.495,0.013c3.772,0 6.697,-0.306 10.304,-3.912l8.955,-8.955c6.592,-6.594 6.968,-17.021 0.854,-23.739Zm-4.391,20.203l-8.955,8.955c-2.238,2.238 -3.659,2.449 -6.788,2.447l-2.779,-2.779l-2.767,2.767l-11.313,0l4.179,-4.179l5.943,0.002c3.737,0.055 6.685,0.099 10.359,-3.575l0.173,-0.173c4.396,-4.397 4.721,-11.392 0.738,-15.926c-1.736,-1.976 -4.012,-3.266 -6.535,-3.731l1.065,-1.067c2.342,-2.342 5.456,-3.592 8.77,-3.511c3.311,0.078 6.366,1.475 8.604,3.934c4.241,4.659 3.93,12.213 -0.694,16.836Zm-36.142,2.235l11.94,-11.961c1.251,-1.125 2.85,-1.711 4.551,-1.656c1.814,0.059 3.478,0.847 4.684,2.22c2.248,2.559 2.021,6.553 -0.516,9.09l-0.173,0.173c-2.093,2.093 -3.244,2.161 -6.36,2.118l4.946,-4.946l-2.121,-2.121l-7.053,7.053l-2.837,0.009l8.476,-8.476l-2.121,-2.121l-10.613,10.609l-2.803,0.009Zm27.91,-20.751c1.104,0 2,0.896 2,2c0,1.104 -0.896,2 -2,2c-1.104,0 -2,-0.896 -2,-2c0,-1.104 0.896,-2 2,-2Z"/>
</svg>