<svg xmlns="http://www.w3.org/2000/svg" width="215" height="72" viewBox="0 0 215 72">
    <defs>
        <filter id="a" width="200%" height="200%">
            <feOffset result="offOut" in="SourceAlpha" dy="2.2"/>
            <feGaussianBlur result="blurOut" in="offOut" stdDeviation="1.5"/>
            <feColorMatrix values="0 0 0 0 0 0 0 0 0 0 0 0 0 0 0 0 0 0 0.4 0"/>
            <feMerge>
                <feMergeNode/>
                <feMergeNode in="SourceGraphic"/>
            </feMerge>
        </filter>
    </defs>
    <path fill="#ffffff" filter="url(#a)" d="M66.553,16.855l1.975,-8.495l-9.36,2.263c-2.711,-1.36 -5.712,-2.109 -8.779,-2.181c-5.699,-0.134 -11.072,2.015 -15.11,6.053l-33.789,33.848l12.194,0.474l-8.614,8.614l18.122,0.514l8.604,8.604l8.602,-8.603c0.271,0.001 1.6,0.012 1.975,0.012c4.17,0 8.295,-0.382 12.901,-4.988l8.955,-8.955c7.464,-7.463 8.323,-19.011 2.324,-27.16Z"/>
    <path fill="#0068c3" d="M62.487,17.68c-0.019,-0.021 -0.04,-0.041 -0.059,-0.062l1.579,-4.737l-5.209,1.736c-2.53,-1.561 -5.434,-2.433 -8.495,-2.505c-4.696,-0.11 -9.105,1.656 -12.424,4.976l-28.019,28.069l12.719,-0.04l-9.156,9.156l18.385,0l-3.547,3.547l3.536,3.536l7.082,-7.083l3.495,0.013c3.772,0 6.697,-0.306 10.304,-3.912l8.955,-8.955c6.592,-6.594 6.968,-17.021 0.854,-23.739Zm-4.391,20.203l-8.955,8.955c-2.238,2.238 -3.659,2.449 -6.788,2.447l-2.779,-2.779l-2.767,2.767l-11.313,0l4.179,-4.179l5.943,0.002c3.737,0.055 6.685,0.099 10.359,-3.575l0.173,-0.173c4.396,-4.397 4.721,-11.392 0.738,-15.926c-1.736,-1.976 -4.012,-3.266 -6.535,-3.731l1.065,-1.067c2.342,-2.342 5.456,-3.592 8.77,-3.511c3.311,0.078 6.366,1.475 8.604,3.934c4.241,4.659 3.93,12.213 -0.694,16.836Zm-36.142,2.235l11.94,-11.961c1.251,-1.125 2.85,-1.711 4.551,-1.656c1.814,0.059 3.478,0.847 4.684,2.22c2.248,2.559 2.021,6.553 -0.516,9.09l-0.173,0.173c-2.093,2.093 -3.244,2.161 -6.36,2.118l4.946,-4.946l-2.121,-2.121l-7.053,7.053l-2.837,0.009l8.476,-8.476l-2.121,-2.121l-10.613,10.609l-2.803,0.009Zm27.91,-20.751c1.104,0 2,0.896 2,2c0,1.104 -0.896,2 -2,2c-1.104,0 -2,-0.896 -2,-2c0,-1.104 0.896,-2 2,-2Z"/>
    <path fill="#ffffff" d="M90.278,25.061c0,3.027 -0.861,5.345 -2.584,6.955c-1.723,1.61 -4.211,2.415 -7.464,2.415l-5.206,0l0,-18.387l5.771,0c3.002,0 5.333,0.792 6.993,2.376c1.66,1.585 2.49,3.799 2.49,6.641Zm-4.049,0.101c0,-3.949 -1.744,-5.923 -5.232,-5.923l-2.074,0l0,11.973l1.672,0c3.755,-0.001 5.634,-2.018 5.634,-6.05Zm11.991,9.52c-2.264,0 -4.033,-0.625 -5.308,-1.874c-1.274,-1.25 -1.911,-3.019 -1.911,-5.307c0,-2.356 0.589,-4.177 1.767,-5.464c1.178,-1.287 2.807,-1.93 4.886,-1.93c1.987,0 3.534,0.566 4.641,1.698c1.107,1.132 1.66,2.695 1.66,4.69l0,1.861l-9.067,0c0.042,1.09 0.364,1.941 0.969,2.553c0.604,0.612 1.45,0.918 2.54,0.918c0.847,0 1.647,-0.088 2.402,-0.264c0.754,-0.176 1.542,-0.457 2.364,-0.843l0,2.968c-0.671,0.335 -1.388,0.585 -2.151,0.749c-0.764,0.163 -1.695,0.245 -2.792,0.245Zm-0.541,-11.847c-0.813,0 -1.451,0.258 -1.912,0.773c-0.461,0.515 -0.725,1.248 -0.792,2.195l5.383,0c-0.018,-0.947 -0.265,-1.679 -0.742,-2.195c-0.477,-0.516 -1.125,-0.773 -1.937,-0.773Zm10.807,11.595l-5.357,-14.06l4.012,0l2.717,8.011c0.302,1.014 0.49,1.974 0.565,2.88l0.075,0c0.042,-0.805 0.23,-1.765 0.566,-2.88l2.704,-8.011l4.012,0l-5.357,14.06l-3.937,0Zm22.151,-7.055c0,2.289 -0.604,4.079 -1.811,5.37c-1.207,1.291 -2.889,1.937 -5.043,1.937c-1.35,0 -2.54,-0.295 -3.571,-0.887c-1.031,-0.591 -1.824,-1.44 -2.377,-2.546c-0.554,-1.107 -0.83,-2.398 -0.83,-3.874c0,-2.297 0.599,-4.083 1.798,-5.357c1.199,-1.274 2.884,-1.911 5.056,-1.911c1.35,0 2.54,0.293 3.571,0.88c1.031,0.587 1.824,1.43 2.377,2.528c0.553,1.098 0.83,2.384 0.83,3.86Zm-9.721,0c0,1.392 0.229,2.444 0.686,3.157c0.456,0.712 1.2,1.069 2.231,1.069c1.023,0 1.759,-0.354 2.207,-1.062c0.449,-0.708 0.673,-1.763 0.673,-3.163c0,-1.392 -0.226,-2.436 -0.679,-3.131c-0.453,-0.695 -1.194,-1.044 -2.226,-1.044c-1.023,0 -1.761,0.346 -2.214,1.038c-0.451,0.69 -0.678,1.736 -0.678,3.136Zm14.794,7.055l-3.836,0l0,-19.568l3.836,0l0,19.568Zm12.054,0l-0.516,-1.798l-0.201,0c-0.411,0.654 -0.994,1.159 -1.748,1.516c-0.755,0.356 -1.614,0.534 -2.578,0.534c-1.652,0 -2.897,-0.442 -3.735,-1.327c-0.839,-0.884 -1.258,-2.157 -1.258,-3.817l0,-9.168l3.836,0l0,8.212c0,1.014 0.18,1.775 0.541,2.282c0.36,0.507 0.935,0.761 1.723,0.761c1.073,0 1.849,-0.359 2.326,-1.076c0.479,-0.717 0.717,-1.905 0.717,-3.565l0,-6.614l3.836,0l0,14.06l-2.943,0Zm10.958,-2.804c0.671,0 1.476,-0.147 2.414,-0.44l0,2.855c-0.955,0.427 -2.129,0.641 -3.521,0.641c-1.534,0 -2.652,-0.388 -3.352,-1.163c-0.7,-0.775 -1.051,-1.939 -1.051,-3.49l0,-6.779l-1.836,0l0,-1.622l2.113,-1.283l1.106,-2.968l2.452,0l0,2.993l3.937,0l0,2.88l-3.937,0l0,6.779c0,0.545 0.153,0.947 0.459,1.207c0.307,0.26 0.713,0.39 1.216,0.39Zm3.161,-14.89c0,-1.249 0.696,-1.874 2.088,-1.874c1.392,0 2.087,0.625 2.087,1.874c0,0.595 -0.174,1.059 -0.521,1.39c-0.348,0.332 -0.87,0.497 -1.565,0.497c-1.393,-0.001 -2.089,-0.629 -2.089,-1.887Zm3.999,17.694l-3.836,0l0,-14.06l3.836,0l0,14.06Zm14.87,-7.055c0,2.289 -0.604,4.079 -1.811,5.37c-1.207,1.291 -2.889,1.937 -5.043,1.937c-1.35,0 -2.54,-0.295 -3.571,-0.887c-1.031,-0.591 -1.824,-1.44 -2.377,-2.546c-0.554,-1.107 -0.83,-2.398 -0.83,-3.874c0,-2.297 0.599,-4.083 1.798,-5.357c1.199,-1.274 2.884,-1.911 5.056,-1.911c1.35,0 2.54,0.293 3.571,0.88c1.031,0.587 1.824,1.43 2.377,2.528c0.554,1.098 0.83,2.384 0.83,3.86Zm-9.721,0c0,1.392 0.229,2.444 0.686,3.157c0.456,0.712 1.2,1.069 2.231,1.069c1.023,0 1.759,-0.354 2.207,-1.062c0.449,-0.708 0.673,-1.763 0.673,-3.163c0,-1.392 -0.226,-2.436 -0.679,-3.131c-0.453,-0.695 -1.194,-1.044 -2.226,-1.044c-1.023,0 -1.761,0.346 -2.214,1.038c-0.451,0.69 -0.678,1.736 -0.678,3.136Zm23.939,7.055l-3.837,0l-0,-8.212c-0,-1.015 -0.181,-1.775 -0.541,-2.283c-0.36,-0.508 -0.936,-0.761 -1.723,-0.761c-1.073,0 -1.849,0.358 -2.327,1.075c-0.478,0.717 -0.717,1.905 -0.717,3.565l-0,6.615l-3.836,0l-0,-14.059l2.931,0l0.516,1.798l0.214,0c0.428,-0.679 1.017,-1.192 1.767,-1.541c0.75,-0.348 1.604,-0.521 2.56,-0.521c1.635,0 2.875,0.442 3.723,1.327c0.847,0.884 1.27,2.161 1.27,3.829l-0,9.168Zm11.824,-4.175c0,1.442 -0.501,2.541 -1.503,3.295c-1.002,0.754 -2.5,1.132 -4.496,1.132c-1.022,0 -1.895,-0.069 -2.615,-0.208c-0.722,-0.138 -1.396,-0.341 -2.024,-0.61l0,-3.169c0.712,0.335 1.515,0.616 2.408,0.842c0.893,0.227 1.679,0.34 2.357,0.34c1.392,0 2.088,-0.403 2.088,-1.208c0,-0.302 -0.093,-0.547 -0.276,-0.736c-0.185,-0.188 -0.504,-0.402 -0.956,-0.641c-0.453,-0.239 -1.057,-0.518 -1.812,-0.836c-1.081,-0.453 -1.876,-0.872 -2.383,-1.257c-0.507,-0.385 -0.876,-0.828 -1.106,-1.327c-0.23,-0.499 -0.346,-1.113 -0.346,-1.842c0,-1.249 0.484,-2.215 1.452,-2.898c0.969,-0.684 2.341,-1.025 4.119,-1.025c1.693,0 3.341,0.369 4.942,1.106l-1.157,2.767c-0.704,-0.302 -1.362,-0.549 -1.975,-0.742c-0.613,-0.193 -1.236,-0.29 -1.874,-0.29c-1.132,0 -1.697,0.306 -1.697,0.918c0,0.344 0.182,0.642 0.547,0.893c0.364,0.251 1.163,0.625 2.396,1.119c1.099,0.445 1.903,0.86 2.415,1.245c0.511,0.386 0.889,0.83 1.132,1.333c0.243,0.503 0.364,1.103 0.364,1.799Zm-123.471,15.633l6.251,0l0,8.941c-0.973,0.311 -1.962,0.545 -2.968,0.704c-1.006,0.159 -2.172,0.239 -3.496,0.239c-2.784,0 -4.951,-0.828 -6.502,-2.484c-1.551,-1.655 -2.326,-3.976 -2.326,-6.96c0,-1.912 0.383,-3.587 1.15,-5.024c0.767,-1.437 1.872,-2.536 3.313,-3.295c1.442,-0.759 3.132,-1.138 5.068,-1.138c1.962,0 3.79,0.36 5.484,1.081l-0.83,1.887c-1.661,-0.704 -3.258,-1.057 -4.792,-1.057c-2.238,0 -3.986,0.667 -5.244,2c-1.257,1.333 -1.886,3.182 -1.886,5.546c0,2.481 0.605,4.363 1.817,5.646c1.211,1.282 2.99,1.924 5.338,1.924c1.274,0 2.52,-0.146 3.736,-0.44l0,-5.659l-4.113,0l0,-1.911Zm16.896,9.633l-0.415,-1.962l-0.101,0c-0.688,0.864 -1.373,1.448 -2.056,1.755c-0.684,0.306 -1.537,0.459 -2.56,0.459c-1.366,0 -2.438,-0.353 -3.213,-1.057c-0.775,-0.704 -1.163,-1.706 -1.163,-3.006c0,-2.783 2.226,-4.242 6.678,-4.376l2.339,-0.075l0,-0.855c0,-1.082 -0.232,-1.88 -0.698,-2.396c-0.465,-0.516 -1.209,-0.773 -2.232,-0.773c-1.148,0 -2.448,0.352 -3.898,1.056l-0.642,-1.597c0.68,-0.369 1.424,-0.658 2.232,-0.868c0.81,-0.209 1.62,-0.314 2.434,-0.314c1.644,0 2.861,0.365 3.653,1.095c0.792,0.73 1.188,1.898 1.188,3.509l0,9.406l-1.546,0l0,-0.001Zm-4.716,-1.471c1.3,0 2.32,-0.356 3.062,-1.069c0.741,-0.713 1.112,-1.71 1.112,-2.993l0,-1.245l-2.087,0.088c-1.66,0.059 -2.857,0.316 -3.591,0.773c-0.734,0.457 -1.101,1.168 -1.101,2.132c0,0.755 0.229,1.329 0.686,1.723c0.458,0.394 1.097,0.591 1.919,0.591Zm13.083,0c0.369,0 0.726,-0.027 1.069,-0.082c0.343,-0.055 0.616,-0.111 0.817,-0.17l0,1.597c-0.227,0.109 -0.56,0.199 -1,0.271c-0.44,0.072 -0.836,0.107 -1.188,0.107c-2.666,0 -3.999,-1.404 -3.999,-4.213l0,-8.2l-1.975,0l0,-1.006l1.975,-0.867l0.88,-2.943l1.208,0l0,3.194l3.999,0l0,1.622l-3.999,0l0,8.112c0,0.83 0.196,1.467 0.591,1.911c0.393,0.444 0.934,0.667 1.622,0.667Zm8.532,1.722c-2.037,0 -3.646,-0.62 -4.823,-1.861c-1.177,-1.241 -1.767,-2.964 -1.767,-5.169c0,-2.222 0.547,-3.986 1.641,-5.294c1.095,-1.309 2.563,-1.962 4.408,-1.962c1.728,0 3.094,0.567 4.1,1.704c1.006,1.136 1.51,2.635 1.51,4.495l0,1.321l-9.495,0c0.042,1.618 0.45,2.846 1.226,3.685c0.775,0.838 1.868,1.258 3.276,1.258c1.484,0 2.951,-0.311 4.401,-0.931l0,1.86c-0.737,0.319 -1.436,0.548 -2.094,0.686c-0.658,0.139 -1.452,0.208 -2.383,0.208Zm-0.566,-12.538c-1.106,0 -1.989,0.36 -2.646,1.081c-0.658,0.722 -1.046,1.719 -1.164,2.993l7.206,0c0,-1.316 -0.293,-2.324 -0.88,-3.024c-0.587,-0.7 -1.426,-1.05 -2.516,-1.05Zm18.516,12.287l-2.527,-8.086c-0.16,-0.495 -0.457,-1.618 -0.894,-3.37l-0.101,0c-0.335,1.467 -0.629,2.599 -0.88,3.396l-2.604,8.061l-2.414,0l-3.761,-13.783l2.188,0c0.889,3.463 1.565,6.1 2.031,7.91c0.465,1.812 0.731,3.031 0.798,3.66l0.101,0c0.093,-0.479 0.241,-1.097 0.447,-1.855c0.205,-0.759 0.383,-1.36 0.534,-1.805l2.527,-7.91l2.264,0l2.465,7.91c0.47,1.442 0.788,2.654 0.956,3.635l0.101,0c0.033,-0.302 0.124,-0.768 0.271,-1.396c0.146,-0.629 1.021,-4.012 2.622,-10.149l2.163,0l-3.811,13.783l-2.476,0l0,-0.001Zm15.324,0l-0.415,-1.962l-0.101,0c-0.688,0.864 -1.373,1.448 -2.056,1.755c-0.684,0.306 -1.537,0.459 -2.56,0.459c-1.366,0 -2.438,-0.353 -3.213,-1.057c-0.775,-0.704 -1.163,-1.706 -1.163,-3.006c0,-2.783 2.226,-4.242 6.678,-4.376l2.339,-0.075l0,-0.855c0,-1.082 -0.232,-1.88 -0.698,-2.396c-0.465,-0.516 -1.209,-0.773 -2.232,-0.773c-1.148,0 -2.448,0.352 -3.898,1.056l-0.642,-1.597c0.68,-0.369 1.424,-0.658 2.232,-0.868c0.81,-0.209 1.62,-0.314 2.434,-0.314c1.644,0 2.861,0.365 3.653,1.095c0.792,0.73 1.188,1.898 1.188,3.509l0,9.406l-1.546,0l0,-0.001Zm-4.716,-1.471c1.3,0 2.32,-0.356 3.062,-1.069c0.741,-0.713 1.112,-1.71 1.112,-2.993l0,-1.245l-2.087,0.088c-1.66,0.059 -2.857,0.316 -3.591,0.773c-0.734,0.457 -1.101,1.168 -1.101,2.132c0,0.755 0.229,1.329 0.686,1.723c0.458,0.394 1.097,0.591 1.919,0.591Zm6.443,-12.313l2.238,0l3.019,7.86c0.662,1.794 1.072,3.09 1.232,3.886l0.101,0c0.108,-0.428 0.337,-1.159 0.686,-2.194c0.348,-1.035 1.485,-4.22 3.414,-9.552l2.238,0l-5.923,15.695c-0.587,1.551 -1.272,2.651 -2.057,3.301c-0.785,0.65 -1.746,0.975 -2.886,0.975c-0.638,0 -1.267,-0.071 -1.887,-0.214l0,-1.673c0.461,0.101 0.977,0.151 1.547,0.151c1.434,0 2.456,-0.805 3.068,-2.415l0.768,-1.961l-5.558,-13.859Z"/>
</svg>