<svg xmlns="http://www.w3.org/2000/svg" width="155" height="72" viewBox="0 0 155 72">
    <defs>
        <filter id="a" width="200%" height="200%">
            <feOffset result="offOut" in="SourceAlpha" dy="2.2"/>
            <feGaussianBlur result="blurOut" in="offOut" stdDeviation="1.5"/>
            <feColorMatrix values="0 0 0 0 0 0 0 0 0 0 0 0 0 0 0 0 0 0 0.4 0"/>
            <feMerge>
                <feMergeNode/>
                <feMergeNode in="SourceGraphic"/>
            </feMerge>
        </filter>
    </defs>
    <path fill="#ffffff" filter="url(#a)" d="M63.26,63.264l-2.599,-31.833l2.073,-5.573l0,-16.922l-53.285,0l0,16.922l2.073,5.573l-2.599,31.833l54.337,0Z"/>
    <path fill="#0068c3" d="M59.512,59.809l-46.841,-0l2.356,-28.863l-2.124,-5.71l0,-12.845l13.352,-0l0,5.818l2.614,-0l0,-5.818l13.898,-0l0,5.818l2.614,-0l0,-5.818l13.899,-0l0,12.846l-2.124,5.71l2.356,28.862Zm-40.923,-5.454l35.005,-0l-1.973,-24.173l2.205,-5.926l0,-6.409l-2.99,0l0,5.818l-13.523,-0l0,-5.818l-2.989,0l0,5.818l-13.524,-0l0,-5.818l-2.443,0l0,6.409l2.205,5.927l-1.973,24.172Z"/>
    <path fill="#ffffff" d="M93.042,34.43l-4.439,0l-2.49,-9.658c-0.093,-0.344 -0.25,-1.055 -0.472,-2.132c-0.222,-1.077 -0.35,-1.8 -0.384,-2.169c-0.05,0.452 -0.176,1.18 -0.377,2.182c-0.201,1.002 -0.356,1.717 -0.465,2.145l-2.478,9.633l-4.427,0l-4.691,-18.386l3.835,0l2.352,10.035c0.411,1.854 0.708,3.459 0.893,4.816c0.05,-0.478 0.166,-1.218 0.346,-2.22c0.18,-1.001 0.35,-1.779 0.509,-2.332l2.679,-10.3l3.685,0l2.679,10.3c0.117,0.461 0.264,1.165 0.44,2.112c0.176,0.947 0.31,1.761 0.403,2.439c0.083,-0.653 0.218,-1.469 0.402,-2.445c0.184,-0.977 0.352,-1.768 0.503,-2.371l2.339,-10.035l3.836,0l-4.678,18.386Zm13.687,0l-0.741,-1.911l-0.101,0c-0.646,0.812 -1.311,1.377 -1.994,1.691c-0.683,0.314 -1.573,0.472 -2.672,0.472c-1.35,0 -2.413,-0.386 -3.188,-1.157c-0.775,-0.771 -1.163,-1.87 -1.163,-3.295c-0,-1.492 0.522,-2.593 1.566,-3.302c1.043,-0.708 2.617,-1.1 4.722,-1.176l2.439,-0.075l-0,-0.616c-0,-1.425 -0.729,-2.138 -2.188,-2.138c-1.124,0 -2.444,0.34 -3.961,1.019l-1.27,-2.591c1.618,-0.847 3.412,-1.27 5.382,-1.27c1.887,0 3.333,0.41 4.339,1.232c1.006,0.821 1.509,2.07 1.509,3.747l-0,9.369l-2.679,0l-0,0.001Zm-1.132,-6.514l-1.483,0.051c-1.115,0.033 -1.945,0.234 -2.49,0.604c-0.545,0.37 -0.817,0.931 -0.817,1.686c-0,1.081 0.62,1.622 1.861,1.622c0.889,0 1.599,-0.256 2.132,-0.768c0.532,-0.511 0.798,-1.19 0.798,-2.037l-0,-1.158l-0.001,0Zm3.815,-7.545l4.2,0l2.654,7.91c0.226,0.688 0.381,1.501 0.465,2.439l0.075,0c0.093,-0.863 0.272,-1.677 0.541,-2.439l2.604,-7.91l4.112,0l-5.948,15.858c-0.546,1.467 -1.323,2.566 -2.333,3.294c-1.011,0.729 -2.19,1.095 -3.54,1.095c-0.663,0 -1.312,-0.071 -1.949,-0.214l-0,-3.043c0.461,0.108 0.964,0.163 1.509,0.163c0.679,0 1.272,-0.208 1.779,-0.624c0.508,-0.414 0.903,-1.041 1.188,-1.88l0.227,-0.691l-5.584,-13.958Zm18.416,6.413l1.673,-2.138l3.937,-4.275l4.326,0l-5.584,6.099l5.923,7.961l-4.426,0l-4.05,-5.697l-1.647,1.321l-0,4.376l-3.836,0l-0,-19.569l3.836,0l-0,8.728l-0.201,3.194l0.049,0Zm-52.482,10.352l5.195,0c2.439,0 4.205,0.364 5.294,1.094c1.089,0.73 1.635,1.883 1.635,3.458c-0,1.091 -0.304,1.989 -0.912,2.698c-0.608,0.708 -1.495,1.167 -2.66,1.377l-0,0.126c2.792,0.478 4.188,1.944 4.188,4.401c-0,1.644 -0.556,2.926 -1.666,3.848c-1.111,0.923 -2.665,1.384 -4.66,1.384l-6.414,0l-0,-18.386Zm2.139,7.872l3.521,0c1.509,0 2.595,-0.236 3.257,-0.71c0.663,-0.474 0.994,-1.272 0.994,-2.396c-0,-1.031 -0.369,-1.774 -1.106,-2.231c-0.738,-0.457 -1.912,-0.686 -3.521,-0.686l-3.144,0l-0,6.023l-0.001,0Zm-0,1.811l-0,6.879l3.836,0c1.484,0 2.601,-0.287 3.352,-0.861c0.75,-0.574 1.125,-1.474 1.125,-2.698c-0,-1.14 -0.384,-1.979 -1.151,-2.515c-0.767,-0.537 -1.935,-0.805 -3.502,-0.805l-3.66,0Zm20.78,8.702l-0.415,-1.961l-0.1,0c-0.688,0.863 -1.373,1.448 -2.056,1.755c-0.683,0.306 -1.536,0.459 -2.559,0.459c-1.367,0 -2.438,-0.353 -3.213,-1.057c-0.775,-0.704 -1.163,-1.706 -1.163,-3.006c-0,-2.783 2.226,-4.242 6.678,-4.376l2.339,-0.076l-0,-0.854c-0,-1.082 -0.233,-1.881 -0.698,-2.396c-0.465,-0.515 -1.209,-0.773 -2.232,-0.773c-1.149,0 -2.448,0.353 -3.899,1.057l-0.641,-1.597c0.679,-0.369 1.423,-0.658 2.232,-0.868c0.809,-0.209 1.62,-0.314 2.433,-0.314c1.643,0 2.861,0.365 3.653,1.095c0.792,0.729 1.188,1.898 1.188,3.508l-0,9.407l-1.547,0l-0,-0.003Zm-4.716,-1.471c1.299,0 2.32,-0.355 3.062,-1.068c0.742,-0.713 1.113,-1.711 1.113,-2.993l-0,-1.245l-2.088,0.088c-1.66,0.059 -2.857,0.316 -3.59,0.773c-0.734,0.457 -1.101,1.168 -1.101,2.132c-0,0.754 0.229,1.329 0.686,1.723c0.457,0.394 1.097,0.59 1.918,0.59Zm17.523,-2.288c-0,1.282 -0.478,2.271 -1.434,2.968c-0.955,0.695 -2.297,1.044 -4.024,1.044c-1.827,0 -3.253,-0.29 -4.275,-0.868l-0,-1.937c0.662,0.335 1.373,0.6 2.132,0.792c0.759,0.193 1.49,0.289 2.194,0.289c1.09,0 1.928,-0.174 2.515,-0.521c0.587,-0.347 0.881,-0.878 0.881,-1.591c-0,-0.536 -0.232,-0.996 -0.698,-1.377c-0.465,-0.382 -1.373,-0.832 -2.723,-1.353c-1.282,-0.478 -2.194,-0.895 -2.735,-1.251c-0.541,-0.356 -0.943,-0.761 -1.207,-1.214c-0.264,-0.452 -0.396,-0.993 -0.396,-1.622c-0,-1.123 0.457,-2.01 1.371,-2.66c0.914,-0.649 2.167,-0.975 3.76,-0.975c1.484,0 2.935,0.303 4.352,0.906l-0.742,1.697c-1.383,-0.57 -2.637,-0.855 -3.76,-0.855c-0.989,0 -1.735,0.155 -2.238,0.466c-0.503,0.311 -0.755,0.737 -0.755,1.282c-0,0.369 0.095,0.684 0.283,0.943c0.188,0.259 0.492,0.508 0.911,0.742c0.42,0.235 1.225,0.574 2.415,1.019c1.635,0.596 2.739,1.195 3.313,1.799c0.574,0.604 0.86,1.363 0.86,2.277Zm8.449,-13.759c-0,-0.478 0.118,-0.827 0.353,-1.05c0.234,-0.222 0.528,-0.333 0.88,-0.333c0.336,0 0.625,0.113 0.868,0.339c0.243,0.227 0.364,0.576 0.364,1.044c-0,0.47 -0.121,0.82 -0.364,1.051c-0.243,0.231 -0.532,0.346 -0.868,0.346c-0.352,0 -0.646,-0.115 -0.88,-0.346c-0.234,-0.231 -0.353,-0.581 -0.353,-1.051Zm2.263,17.518l-2.087,0l-0,-13.783l2.087,0l-0,13.783Zm14.024,-6.904c-0,2.247 -0.566,4.001 -1.698,5.263c-1.132,1.263 -2.695,1.894 -4.69,1.894c-1.232,0 -2.327,-0.29 -3.282,-0.868c-0.956,-0.578 -1.694,-1.408 -2.214,-2.49c-0.52,-1.081 -0.779,-2.348 -0.779,-3.798c-0,-2.247 0.562,-3.997 1.685,-5.25c1.124,-1.254 2.683,-1.881 4.679,-1.881c1.928,0 3.46,0.642 4.597,1.925c1.134,1.281 1.702,3.017 1.702,5.205Zm-10.501,0c-0,1.761 0.352,3.103 1.056,4.024c0.705,0.923 1.74,1.384 3.106,1.384c1.366,0 2.404,-0.459 3.112,-1.378c0.709,-0.918 1.063,-2.261 1.063,-4.03c-0,-1.752 -0.354,-3.083 -1.063,-3.993c-0.708,-0.909 -1.754,-1.364 -3.138,-1.364c-1.366,0 -2.397,0.449 -3.093,1.346c-0.695,0.897 -1.043,2.234 -1.043,4.011Zm21.262,6.904l-0,-8.916c-0,-1.124 -0.256,-1.962 -0.768,-2.516c-0.512,-0.553 -1.312,-0.83 -2.402,-0.83c-1.441,0 -2.498,0.39 -3.169,1.17c-0.671,0.779 -1.006,2.066 -1.006,3.86l-0,7.231l-2.088,0l-0,-13.782l1.698,0l0.339,1.887l0.101,0c0.428,-0.68 1.027,-1.205 1.799,-1.578c0.772,-0.373 1.631,-0.561 2.578,-0.561c1.66,0 2.909,0.401 3.747,1.201c0.839,0.801 1.258,2.082 1.258,3.842l-0,8.992l-2.087,0Zm-29.581,-1.471c-0.688,0 -1.229,-0.222 -1.622,-0.666c-0.395,-0.444 -0.592,-1.082 -0.592,-1.912l-0,-8.112l4,0l-0,-1.622l-4,0l-0,-1.174c-0.598,0.236 -1.242,0.373 -1.933,0.408l-0.154,0.766l-1.975,0l-0,1.622l1.975,0l-0,8.2c-0,2.809 1.333,4.213 3.999,4.213c0.352,0 0.748,-0.036 1.188,-0.107c0.44,-0.071 0.773,-0.161 1,-0.271l-0,-1.597c-0.201,0.059 -0.475,0.115 -0.817,0.17c-0.344,0.055 -0.7,0.082 -1.069,0.082Z"/>
</svg>