<svg xmlns="http://www.w3.org/2000/svg" width="145" height="72" viewBox="0 0 145 72">
    <defs>
        <filter id="a" width="200%" height="200%">
            <feOffset result="offOut" in="SourceAlpha" dy="2.2"/>
            <feGaussianBlur result="blurOut" in="offOut" stdDeviation="1.5"/>
            <feColorMatrix values="0 0 0 0 0 0 0 0 0 0 0 0 0 0 0 0 0 0 0.4 0"/>
            <feMerge>
                <feMergeNode/>
                <feMergeNode in="SourceGraphic"/>
            </feMerge>
        </filter>
    </defs>
    <path fill="#ffffff" filter="url(#a)" d="M63.092,55.626c2.865,-3.868 3.616,-8.707 2.116,-13.627l-0.029,-0.094l-5.865,-16.025l-0.033,-0.088c-0.25,-0.631 -0.482,-1.496 -0.73,-2.419l-0.005,-0.019c-0.289,-1.079 -0.628,-2.341 -1.115,-3.667l1.392,-2.435c0.755,-1.32 0.951,-2.856 0.551,-4.323c-0.4,-1.466 -1.346,-2.689 -2.663,-3.442c-0.47,-0.269 -0.966,-0.467 -1.477,-0.593c-0.002,-0.004 -0.004,-0.007 -0.005,-0.011c-0.65,-1.374 -1.797,-2.412 -3.229,-2.924c-1.432,-0.512 -2.977,-0.435 -4.351,0.216c-0.955,0.452 -1.748,1.145 -2.315,2.006c-4.131,-1.437 -9.282,-2.14 -15.612,-2.14l-3.916,0l0,6.093c-0.377,0.097 -0.748,0.208 -1.114,0.332c-1.786,-2.259 -5.037,-2.848 -7.518,-1.27c-1.283,0.816 -2.172,2.083 -2.501,3.568c-0.098,0.443 -0.144,0.89 -0.137,1.333c-2.299,0.732 -3.969,2.887 -3.969,5.426c0,1.727 0.773,3.276 1.99,4.321c-0.463,0.957 -0.942,1.891 -1.41,2.805l-0.012,0.023c-1.975,3.853 -4.018,7.837 -4.844,13.191c-0.459,2.974 -0.293,6.196 0.467,9.074c0.513,1.942 1.291,3.725 2.298,5.285l-1.833,2.062l8.487,7.558l1.321,-1.472l3.545,1.788l1.049,-1.908c4.629,1.225 9.198,1.388 12.433,1.388l0.838,0c5.352,0 10.388,-0.632 14.733,-1.84l1.296,2.55l3.622,-1.875l1.707,1.905l8.495,-7.562l-2.213,-2.484c0.195,-0.234 0.381,-0.469 0.556,-0.706Z"/>
    <path fill="#0068c3" d="M61.792,43.04l-5.831,-15.933c-0.326,-0.823 -0.584,-1.784 -0.857,-2.801l-0.007,-0.027c-0.4,-1.493 -0.852,-3.179 -1.633,-4.847l2.26,-3.954c0.281,-0.492 0.354,-1.064 0.205,-1.61c-0.149,-0.546 -0.502,-1.002 -0.993,-1.283c-0.491,-0.282 -1.063,-0.355 -1.609,-0.206c-0.547,0.149 -1.003,0.502 -1.284,0.995l-1.171,2.048l1.211,-3.389c0.191,-0.534 0.162,-1.109 -0.081,-1.621c-0.243,-0.512 -0.67,-0.899 -1.203,-1.089c-0.533,-0.191 -1.109,-0.162 -1.621,0.08c-0.512,0.243 -0.899,0.67 -1.089,1.203l-0.825,2.308c-4.07,-2.221 -9.816,-3.301 -17.542,-3.301l-0.344,0l0,4.832l0.344,0c15.934,0 18.78,4.605 20.177,9.186c-1.769,-1.774 -4.182,-2.798 -6.714,-2.798c-5.234,0 -9.492,4.258 -9.492,9.492c0,0.322 0.021,0.653 0.064,1.023l-1.125,0.126c-0.123,-3.879 -3.317,-6.997 -7.226,-6.997c-1.101,0 -2.17,0.249 -3.147,0.727c2.148,-3.668 4.467,-5.189 7.791,-5.189l4.353,0l0,-4.832l-4.353,0c-2.47,0 -4.71,0.614 -6.667,1.825l-1.367,-2.147c-0.628,-0.985 -1.941,-1.277 -2.927,-0.65c-0.478,0.304 -0.809,0.776 -0.932,1.329c-0.123,0.553 -0.023,1.121 0.281,1.599l1.441,2.264l-3.622,0c-1.169,0 -2.121,0.951 -2.121,2.121c0,1.17 0.951,2.121 2.121,2.121l1.33,0c-0.383,0.709 -0.763,1.481 -1.153,2.342c-0.681,1.501 -1.407,2.919 -2.11,4.29l-0.011,0.023c-1.931,3.766 -3.755,7.323 -4.492,12.106c-0.385,2.499 -0.247,5.204 0.39,7.618c0.689,2.608 1.937,4.818 3.621,6.419c-0.777,0.661 -1.28,1.221 -1.341,1.29l-0.228,0.257l3.166,2.819l0.229,-0.255c0.119,-0.132 0.331,-0.348 0.6,-0.594l2.55,1.308l0.299,0.15l0.161,-0.293c0.003,-0.006 0.292,-0.526 0.829,-1.092c4.978,1.82 10.342,2.033 13.962,2.033l0.838,0c6.032,0 11.585,-0.841 16.075,-2.432c0.872,0.707 1.349,1.576 1.351,1.579l0.157,0.309l2.768,-1.433c0.471,0.388 0.86,0.771 1.063,0.998l0.229,0.256l3.167,-2.819l-0.229,-0.257c-0.099,-0.11 -0.925,-1.022 -2.147,-1.922c1.177,-0.885 2.149,-1.839 2.891,-2.843c2.206,-2.979 2.751,-6.59 1.57,-10.462Zm-27.477,-9.356c1.386,3.647 4.927,6.133 8.87,6.133c4.714,0 8.636,-3.453 9.369,-7.963l4.64,12.674c0.708,2.37 0.428,4.364 -0.855,6.097c-2.972,4.014 -11.389,6.608 -21.442,6.608l-0.838,0c-4.623,0 -11.33,-0.383 -16.17,-3.693c-3.044,-2.082 -3.841,-6.849 -3.293,-10.398c0.585,-3.79 2.023,-6.741 3.718,-10.056c0.639,3.36 3.558,5.848 7.092,5.848c3.077,0 5.781,-1.94 6.8,-4.796l1.054,1.409l1.055,-1.863Zm8.87,4.064c-4.093,0 -7.423,-3.33 -7.423,-7.423c0,-4.093 3.33,-7.423 7.423,-7.423c4.093,0 7.423,3.33 7.423,7.423c0,4.093 -3.33,7.423 -7.423,7.423Zm-17.778,-0.883c-2.846,0 -5.161,-2.315 -5.161,-5.16c0,-2.845 2.315,-5.16 5.161,-5.16c2.845,0 5.16,2.315 5.16,5.16c0,2.845 -2.315,5.16 -5.16,5.16Zm2.33,-8.439c1.381,0 2.502,1.121 2.502,2.502c0,1.381 -1.121,2.502 -2.502,2.502c-1.381,0 -2.502,-1.121 -2.502,-2.502c0,-1.381 1.121,-2.502 2.502,-2.502Zm15.271,0.345c0,1.906 1.551,3.457 3.456,3.457c1.906,0 3.456,-1.551 3.456,-3.457c0,-1.906 -1.551,-3.456 -3.456,-3.456c-1.905,-0.001 -3.456,1.55 -3.456,3.456Z"/>
    <path fill="#ffffff" d="M92.932,34.431l-4.438,0l-2.49,-9.658c-0.093,-0.344 -0.25,-1.054 -0.472,-2.132c-0.223,-1.077 -0.351,-1.8 -0.384,-2.169c-0.05,0.453 -0.176,1.18 -0.377,2.182c-0.201,1.002 -0.356,1.717 -0.466,2.144l-2.478,9.633l-4.427,0l-4.69,-18.386l3.836,0l2.352,10.035c0.41,1.853 0.708,3.458 0.893,4.817c0.051,-0.478 0.166,-1.218 0.346,-2.22c0.181,-1.002 0.351,-1.78 0.51,-2.333l2.679,-10.299l3.685,0l2.679,10.299c0.117,0.461 0.264,1.166 0.44,2.113c0.176,0.948 0.31,1.761 0.402,2.44c0.083,-0.654 0.218,-1.469 0.402,-2.446c0.185,-0.977 0.352,-1.767 0.503,-2.371l2.339,-10.035l3.836,0l-4.68,18.386Zm13.688,0l-0.742,-1.912l-0.101,0c-0.646,0.813 -1.311,1.377 -1.993,1.691c-0.684,0.314 -1.574,0.472 -2.673,0.472c-1.35,0 -2.412,-0.385 -3.188,-1.157c-0.776,-0.771 -1.164,-1.87 -1.164,-3.295c-0,-1.492 0.522,-2.593 1.566,-3.301c1.044,-0.708 2.617,-1.101 4.722,-1.176l2.44,-0.076l-0,-0.616c-0,-1.425 -0.729,-2.138 -2.188,-2.138c-1.124,0 -2.444,0.339 -3.962,1.019l-1.27,-2.591c1.618,-0.847 3.412,-1.27 5.382,-1.27c1.887,0 3.333,0.411 4.339,1.232c1.006,0.821 1.51,2.071 1.51,3.748l-0,9.369l-2.678,0l-0,0.001Zm-1.132,-6.514l-1.484,0.05c-1.115,0.034 -1.945,0.235 -2.49,0.604c-0.545,0.369 -0.817,0.931 -0.817,1.685c-0,1.082 0.62,1.623 1.861,1.623c0.889,0 1.6,-0.256 2.132,-0.767c0.532,-0.512 0.799,-1.19 0.799,-2.038l-0,-1.157l-0.001,0Zm3.816,-7.546l4.2,0l2.653,7.911c0.227,0.688 0.382,1.5 0.466,2.439l0.075,-0c0.092,-0.863 0.272,-1.677 0.541,-2.439l2.604,-7.911l4.112,-0l-5.949,15.858c-0.545,1.467 -1.322,2.565 -2.332,3.294c-1.011,0.729 -2.19,1.095 -3.541,1.095c-0.662,0 -1.312,-0.071 -1.949,-0.214l-0,-3.044c0.461,0.109 0.965,0.164 1.51,0.164c0.679,0 1.271,-0.208 1.779,-0.623c0.507,-0.415 0.903,-1.042 1.188,-1.88l0.227,-0.692l-5.584,-13.958Zm18.416,6.414l1.672,-2.138l3.937,-4.276l4.326,-0l-5.584,6.1l5.924,7.96l-4.427,-0l-4.05,-5.697l-1.647,1.32l-0,4.376l-3.836,-0l-0,-19.568l3.836,-0l-0,8.728l-0.201,3.194l0.05,-0l-0,0.001Zm-44.61,11.997c-2.021,-0 -3.615,0.673 -4.785,2.019c-1.17,1.346 -1.755,3.188 -1.755,5.527c-0,2.406 0.564,4.266 1.692,5.577c1.127,1.312 2.734,1.969 4.822,1.969c1.283,-0 2.746,-0.23 4.389,-0.692l-0,1.874c-1.274,0.479 -2.846,0.717 -4.716,0.717c-2.708,-0 -4.798,-0.821 -6.269,-2.465c-1.472,-1.643 -2.207,-3.978 -2.207,-7.005c-0,-1.895 0.354,-3.555 1.062,-4.979c0.708,-1.426 1.731,-2.523 3.068,-3.295c1.337,-0.772 2.911,-1.157 4.723,-1.157c1.928,-0 3.613,0.352 5.055,1.056l-0.905,1.836c-1.39,-0.655 -2.782,-0.982 -4.174,-0.982Zm8.217,16.739l-2.088,0l-0,-19.568l2.088,0l-0,19.568Zm2.319,-17.518c-0,-0.478 0.117,-0.828 0.353,-1.05c0.234,-0.222 0.528,-0.333 0.88,-0.333c0.335,0 0.625,0.113 0.868,0.339c0.243,0.226 0.364,0.574 0.364,1.043c-0,0.469 -0.121,0.819 -0.364,1.05c-0.243,0.231 -0.533,0.346 -0.868,0.346c-0.352,0 -0.646,-0.114 -0.88,-0.346c-0.235,-0.23 -0.353,-0.579 -0.353,-1.049Zm2.264,17.518l-2.088,0l-0,-13.783l2.088,0l-0,13.783Zm8.318,0.251c-2.037,0 -3.646,-0.62 -4.823,-1.861c-1.178,-1.24 -1.767,-2.963 -1.767,-5.168c-0,-2.222 0.547,-3.987 1.641,-5.295c1.095,-1.308 2.563,-1.962 4.408,-1.962c1.728,0 3.094,0.568 4.1,1.704c1.006,1.137 1.51,2.635 1.51,4.496l-0,1.32l-9.495,0c0.042,1.618 0.45,2.847 1.226,3.685c0.775,0.839 1.868,1.258 3.276,1.258c1.484,0 2.951,-0.31 4.401,-0.931l-0,1.861c-0.737,0.318 -1.436,0.547 -2.094,0.686c-0.659,0.138 -1.453,0.207 -2.383,0.207Zm-0.567,-12.538c-1.106,-0 -1.989,0.36 -2.646,1.082c-0.658,0.721 -1.046,1.719 -1.164,2.993l7.206,-0c-0,-1.316 -0.293,-2.325 -0.88,-3.025c-0.587,-0.699 -1.426,-1.05 -2.516,-1.05Zm16.694,12.287l-0,-8.917c-0,-1.123 -0.256,-1.961 -0.768,-2.515c-0.512,-0.554 -1.312,-0.83 -2.401,-0.83c-1.442,-0 -2.499,0.39 -3.17,1.17c-0.671,0.779 -1.006,2.066 -1.006,3.86l-0,7.231l-2.088,-0l-0,-13.782l1.698,-0l0.34,1.886l0.101,-0c0.428,-0.679 1.026,-1.205 1.798,-1.578c0.772,-0.373 1.631,-0.56 2.578,-0.56c1.66,-0 2.909,0.4 3.748,1.201c0.838,0.801 1.257,2.081 1.257,3.842l-0,8.992l-2.087,-0Zm8.896,-1.471c0.369,-0 0.726,-0.027 1.069,-0.082c0.344,-0.054 0.616,-0.11 0.817,-0.169l-0,1.597c-0.227,0.109 -0.56,0.199 -1,0.271c-0.44,0.072 -0.836,0.106 -1.188,0.106c-2.666,-0 -3.999,-1.404 -3.999,-4.213l-0,-8.2l-1.975,-0l-0,-1.006l1.975,-0.868l0.88,-2.942l1.208,-0l-0,3.194l3.999,-0l-0,1.622l-3.999,-0l-0,8.111c-0,0.83 0.196,1.468 0.591,1.912c0.393,0.445 0.934,0.667 1.622,0.667Z"/>
</svg>