<svg xmlns="http://www.w3.org/2000/svg" width="72" height="72" viewBox="0 0 72 72">
    <defs>
        <filter id="a" width="200%" height="200%">
            <feOffset result="offOut" in="SourceAlpha" dy="2.2"/>
            <feGaussianBlur result="blurOut" in="offOut" stdDeviation="1.5"/>
            <feColorMatrix values="0 0 0 0 0 0 0 0 0 0 0 0 0 0 0 0 0 0 0.4 0"/>
            <feMerge>
                <feMergeNode/>
                <feMergeNode in="SourceGraphic"/>
            </feMerge>
        </filter>
    </defs>
    <path fill="#ffffff" filter="url(#a)" d="M63.092,55.626c2.865,-3.868 3.616,-8.707 2.116,-13.627l-0.029,-0.094l-5.865,-16.025l-0.033,-0.088c-0.25,-0.631 -0.482,-1.496 -0.73,-2.419l-0.005,-0.019c-0.289,-1.079 -0.628,-2.341 -1.115,-3.667l1.392,-2.435c0.755,-1.32 0.951,-2.856 0.551,-4.323c-0.4,-1.466 -1.346,-2.689 -2.663,-3.442c-0.47,-0.269 -0.966,-0.467 -1.477,-0.593c-0.002,-0.004 -0.004,-0.007 -0.005,-0.011c-0.65,-1.374 -1.797,-2.412 -3.229,-2.924c-1.432,-0.512 -2.977,-0.435 -4.351,0.216c-0.955,0.452 -1.748,1.145 -2.315,2.006c-4.131,-1.437 -9.282,-2.14 -15.612,-2.14l-3.916,0l0,6.093c-0.377,0.097 -0.748,0.208 -1.114,0.332c-1.786,-2.259 -5.037,-2.848 -7.518,-1.27c-1.283,0.816 -2.172,2.083 -2.501,3.568c-0.098,0.443 -0.144,0.89 -0.137,1.333c-2.299,0.732 -3.969,2.887 -3.969,5.426c0,1.727 0.773,3.276 1.99,4.321c-0.463,0.957 -0.942,1.891 -1.41,2.805l-0.012,0.023c-1.975,3.853 -4.018,7.837 -4.844,13.191c-0.459,2.974 -0.293,6.196 0.467,9.074c0.513,1.942 1.291,3.725 2.298,5.285l-1.833,2.062l8.487,7.558l1.321,-1.472l3.545,1.788l1.049,-1.908c4.629,1.225 9.198,1.388 12.433,1.388l0.838,0c5.352,0 10.388,-0.632 14.733,-1.84l1.296,2.55l3.622,-1.875l1.707,1.905l8.495,-7.562l-2.213,-2.484c0.195,-0.234 0.381,-0.469 0.556,-0.706Z"/>
    <path fill="#0068c3" d="M61.792,43.04l-5.831,-15.933c-0.326,-0.823 -0.584,-1.784 -0.857,-2.801l-0.007,-0.027c-0.4,-1.493 -0.852,-3.179 -1.633,-4.847l2.26,-3.954c0.281,-0.492 0.354,-1.064 0.205,-1.61c-0.149,-0.546 -0.502,-1.002 -0.993,-1.283c-0.491,-0.282 -1.063,-0.355 -1.609,-0.206c-0.547,0.149 -1.003,0.502 -1.284,0.995l-1.171,2.048l1.211,-3.389c0.191,-0.534 0.162,-1.109 -0.081,-1.621c-0.243,-0.512 -0.67,-0.899 -1.203,-1.089c-0.533,-0.191 -1.109,-0.162 -1.621,0.08c-0.512,0.243 -0.899,0.67 -1.089,1.203l-0.825,2.308c-4.07,-2.221 -9.816,-3.301 -17.542,-3.301l-0.344,0l0,4.832l0.344,0c15.934,0 18.78,4.605 20.177,9.186c-1.769,-1.774 -4.182,-2.798 -6.714,-2.798c-5.234,0 -9.492,4.258 -9.492,9.492c0,0.322 0.021,0.653 0.064,1.023l-1.125,0.126c-0.123,-3.879 -3.317,-6.997 -7.226,-6.997c-1.101,0 -2.17,0.249 -3.147,0.727c2.148,-3.668 4.467,-5.189 7.791,-5.189l4.353,0l0,-4.832l-4.353,0c-2.47,0 -4.71,0.614 -6.667,1.825l-1.367,-2.147c-0.628,-0.985 -1.941,-1.277 -2.927,-0.65c-0.478,0.304 -0.809,0.776 -0.932,1.329c-0.123,0.553 -0.023,1.121 0.281,1.599l1.441,2.264l-3.622,0c-1.169,0 -2.121,0.951 -2.121,2.121c0,1.17 0.951,2.121 2.121,2.121l1.33,0c-0.383,0.709 -0.763,1.481 -1.153,2.342c-0.681,1.501 -1.407,2.919 -2.11,4.29l-0.011,0.023c-1.931,3.766 -3.755,7.323 -4.492,12.106c-0.385,2.499 -0.247,5.204 0.39,7.618c0.689,2.608 1.937,4.818 3.621,6.419c-0.777,0.661 -1.28,1.221 -1.341,1.29l-0.228,0.257l3.166,2.819l0.229,-0.255c0.119,-0.132 0.331,-0.348 0.6,-0.594l2.55,1.308l0.299,0.15l0.161,-0.293c0.003,-0.006 0.292,-0.526 0.829,-1.092c4.978,1.82 10.342,2.033 13.962,2.033l0.838,0c6.032,0 11.585,-0.841 16.075,-2.432c0.872,0.707 1.349,1.576 1.351,1.579l0.157,0.309l2.768,-1.433c0.471,0.388 0.86,0.771 1.063,0.998l0.229,0.256l3.167,-2.819l-0.229,-0.257c-0.099,-0.11 -0.925,-1.022 -2.147,-1.922c1.177,-0.885 2.149,-1.839 2.891,-2.843c2.206,-2.979 2.751,-6.59 1.57,-10.462Zm-36.385,-6.175c-2.846,0 -5.161,-2.315 -5.161,-5.16c0,-2.845 2.315,-5.16 5.161,-5.16c2.845,0 5.16,2.315 5.16,5.16c0,2.845 -2.315,5.16 -5.16,5.16Zm17.778,0.883c-4.093,0 -7.423,-3.33 -7.423,-7.423c0,-4.093 3.33,-7.423 7.423,-7.423c4.093,0 7.423,3.33 7.423,7.423c0,4.093 -3.33,7.423 -7.423,7.423Zm-8.87,-4.064c1.386,3.647 4.927,6.133 8.87,6.133c4.714,0 8.636,-3.453 9.369,-7.963l4.64,12.674c0.708,2.37 0.428,4.364 -0.855,6.097c-2.972,4.014 -11.389,6.608 -21.442,6.608l-0.838,0c-4.623,0 -11.33,-0.383 -16.17,-3.693c-3.044,-2.082 -3.841,-6.849 -3.293,-10.398c0.585,-3.79 2.023,-6.741 3.718,-10.056c0.639,3.36 3.558,5.848 7.092,5.848c3.077,0 5.781,-1.94 6.8,-4.796l1.054,1.409l1.055,-1.863Zm-6.578,-5.257c1.379,0 2.502,1.122 2.502,2.502c0,1.379 -1.122,2.502 -2.502,2.502c-1.379,0 -2.502,-1.122 -2.502,-2.502c0,-1.38 1.122,-2.502 2.502,-2.502Zm18.727,-3.113c1.906,0 3.456,1.551 3.456,3.456c0,1.905 -1.551,3.457 -3.456,3.457c-1.906,0 -3.456,-1.551 -3.456,-3.457c0,-1.906 1.551,-3.456 3.456,-3.456Z"/>
</svg>